<?xml version="1.0" standalone="no"?>
<!DOCTYPE svg PUBLIC "-//W3C//DTD SVG 20010904//EN"
 "http://www.w3.org/TR/2001/REC-SVG-20010904/DTD/svg10.dtd">
<svg version="1.0" xmlns="http://www.w3.org/2000/svg"
 width="600.000000pt" height="600.000000pt" viewBox="0 0 600.000000 600.000000"
 preserveAspectRatio="xMidYMid meet">

<g transform="translate(0.000000,600.000000) scale(0.100000,-0.100000)"
fill="#000000" stroke="none">
<path d="M2897 5805 c12 -8 40 -44 62 -80 33 -51 41 -74 41 -110 0 -38 -4 -47
-22 -55 -18 -7 -11 -9 32 -9 30 1 49 3 43 6 -8 3 -13 24 -13 56 0 43 6 62 36
107 20 30 48 65 63 77 l26 23 -49 0 c-45 0 -48 -1 -31 -14 18 -13 17 -15 -14
-65 -18 -28 -37 -51 -41 -51 -5 0 -22 24 -39 53 -28 47 -29 53 -14 65 14 10 7
12 -42 12 -56 0 -58 -1 -38 -15z"/>
<path d="M2680 5798 c-161 -19 -150 -16 -150 -51 l1 -32 15 28 c11 20 22 27
44 27 34 0 34 0 50 -135 9 -81 8 -91 -7 -103 -15 -11 -10 -12 37 -6 58 7 78
14 42 14 -23 0 -24 2 -43 149 -5 45 -8 85 -6 88 13 13 69 4 82 -13 14 -18 15
-17 9 11 -4 17 -7 30 -8 31 -1 0 -30 -3 -66 -8z"/>
<path d="M3442 5760 c-52 -32 -74 -76 -69 -139 3 -47 9 -59 40 -88 42 -38 96
-44 148 -18 94 49 91 210 -6 251 -46 19 -74 18 -113 -6z m122 -19 c56 -62 7
-231 -67 -231 -37 0 -75 36 -83 78 -9 45 10 120 38 150 28 28 87 30 112 3z"/>
<path d="M2330 5735 c-25 -7 -37 -13 -28 -14 24 -1 27 -10 54 -124 21 -90 21
-103 8 -118 -14 -15 -11 -16 31 -6 40 9 43 12 31 26 -8 9 -25 63 -37 119 -23
102 -23 104 -4 118 23 17 7 17 -55 -1z"/>
<path d="M3807 5689 c9 -11 4 -37 -23 -119 -18 -58 -41 -110 -49 -116 -13 -10
-12 -13 9 -18 13 -3 31 -9 40 -12 12 -5 15 -2 10 10 -7 18 14 103 27 111 15
10 60 -15 68 -37 8 -22 8 -21 14 4 4 14 10 34 14 45 6 16 5 16 -10 5 -19 -16
-77 -7 -77 12 0 16 21 79 29 88 11 13 91 -31 101 -54 l9 -23 0 23 c1 12 1 25
2 29 0 4 -29 17 -64 29 -115 39 -113 39 -100 23z"/>
<path d="M2130 5670 c0 -5 -15 -10 -34 -10 -70 0 -113 -73 -71 -120 9 -10 43
-25 74 -31 75 -16 91 -25 91 -53 0 -55 -73 -74 -117 -30 -16 16 -24 20 -19 9
3 -9 9 -28 12 -41 5 -19 9 -22 24 -14 10 6 32 10 48 10 44 0 82 34 82 75 0 44
-32 69 -109 84 -71 14 -89 31 -73 66 16 36 74 35 107 -1 l25 -27 -16 47 c-15
44 -24 57 -24 36z"/>
<path d="M4216 5505 c-9 -14 -12 -25 -7 -25 5 0 13 5 16 10 3 6 15 10 26 10
28 0 103 -40 93 -50 -5 -4 -64 -36 -131 -71 -68 -35 -123 -66 -123 -69 0 -3
44 -27 97 -54 l97 -48 17 24 c19 24 16 39 -3 20 -7 -7 -18 -12 -25 -12 -17 0
-123 51 -123 59 0 3 59 37 132 75 l131 69 -84 43 c-46 24 -87 43 -90 43 -4 1
-14 -10 -23 -24z"/>
<path d="M1692 5491 c-46 -23 -52 -29 -38 -40 25 -21 108 -192 103 -212 -5
-17 -3 -17 37 3 43 22 62 35 35 26 -22 -8 -33 1 -58 50 -30 58 -12 63 76 19
66 -34 69 -34 98 -19 l30 17 -25 3 c-14 1 -51 14 -82 29 -56 26 -58 27 -43 49
33 51 6 104 -51 104 -16 -1 -53 -13 -82 -29z m86 -7 c32 -22 29 -67 -5 -94
l-27 -21 -26 51 c-24 51 -25 52 -6 66 25 18 36 18 64 -2z"/>
<path d="M2928 5443 c12 -2 30 -2 40 0 9 3 -1 5 -23 4 -22 0 -30 -2 -17 -4z"/>
<path d="M3018 5443 c23 -9 12 -28 -69 -109 -45 -45 -73 -81 -65 -81 9 0 16 5
16 11 0 6 32 43 71 82 49 50 70 77 66 88 -4 9 -12 16 -19 15 -10 0 -10 -2 0
-6z"/>
<path d="M2753 5433 c9 -2 23 -2 30 0 6 3 -1 5 -18 5 -16 0 -22 -2 -12 -5z"/>
<path d="M2836 5426 c2 -7 -24 -46 -58 -87 -35 -41 -70 -83 -77 -94 -26 -35 9
2 81 85 79 92 81 97 63 103 -8 4 -12 1 -9 -7z"/>
<path d="M3210 5430 c12 -8 -1 -25 -69 -88 -62 -58 -81 -81 -71 -87 8 -5 11
-4 6 3 -3 6 31 43 78 84 62 54 81 76 74 86 -6 6 -16 12 -22 12 -6 0 -4 -5 4
-10z"/>
<path d="M2698 5423 c7 -3 16 -2 19 1 4 3 -2 6 -13 5 -11 0 -14 -3 -6 -6z"/>
<path d="M3273 5423 c15 -2 39 -2 55 0 15 2 2 4 -28 4 -30 0 -43 -2 -27 -4z"/>
<path d="M2608 5413 c36 -5 40 -20 14 -54 -59 -78 -112 -158 -100 -154 7 3 18
14 23 25 6 11 32 52 59 90 54 78 55 101 4 98 l-33 -1 33 -4z"/>
<path d="M2548 5403 c7 -3 16 -2 19 1 4 3 -2 6 -13 5 -11 0 -14 -3 -6 -6z"/>
<path d="M3458 5393 c12 -2 30 -2 40 0 9 3 -1 5 -23 4 -22 0 -30 -2 -17 -4z"/>
<path d="M2475 5381 c-3 -5 -20 -8 -38 -7 -17 2 -22 1 -9 -1 12 -2 22 -8 22
-13 0 -15 -110 -195 -127 -207 -9 -7 -12 -13 -6 -13 6 0 16 6 22 14 6 7 21 12
34 11 12 -1 14 0 5 2 -10 2 -18 7 -18 9 0 15 114 195 128 203 9 6 12 11 5 11
-6 0 -14 -4 -18 -9z"/>
<path d="M3332 5324 c-46 -36 -94 -70 -105 -75 -20 -8 -21 -9 -2 -7 11 0 28
-2 38 -7 10 -4 21 -5 24 -1 4 3 -1 6 -10 6 -33 0 -16 20 61 76 91 67 99 74 87
74 -6 -1 -48 -30 -93 -66z"/>
<path d="M3538 5383 c6 -2 18 -2 25 0 6 3 1 5 -13 5 -14 0 -19 -2 -12 -5z"/>
<path d="M3596 5366 c23 -17 30 -11 -84 -81 -51 -31 -91 -60 -88 -63 3 -3 14
1 23 10 10 8 53 36 96 62 42 26 77 51 77 55 0 10 -22 31 -34 31 -5 0 -1 -6 10
-14z"/>
<path d="M2368 5363 c7 -3 16 -2 19 1 4 3 -2 6 -13 5 -11 0 -14 -3 -6 -6z"/>
<path d="M1393 5306 c-87 -63 -91 -66 -63 -59 23 6 21 8 103 -111 28 -41 46
-78 44 -88 -4 -12 15 -4 61 29 97 67 95 65 84 104 l-10 34 -1 -32 c-1 -24 -10
-39 -38 -62 -21 -17 -43 -31 -50 -31 -7 0 -26 20 -43 44 l-30 45 31 21 c18 13
39 20 54 18 l23 -5 -21 33 c-20 31 -22 32 -27 12 -3 -11 -20 -32 -37 -45 l-31
-24 -32 45 -31 46 47 30 c37 23 51 27 66 19 18 -9 18 -8 8 10 -6 12 -16 21
-23 20 -7 0 -45 -24 -84 -53z"/>
<path d="M4546 5342 c3 -10 -22 -55 -59 -107 -48 -69 -68 -90 -85 -89 -13 0
-19 -3 -15 -6 21 -19 154 -110 161 -110 4 0 18 9 32 20 l25 19 -38 -6 c-30 -4
-45 0 -77 21 -41 27 -41 27 -24 55 9 15 24 38 34 51 l17 23 37 -28 c28 -21 35
-33 31 -49 -6 -21 -6 -21 10 -1 9 11 21 27 26 37 7 13 5 15 -10 11 -20 -5 -81
25 -81 39 0 10 51 88 57 88 3 0 23 -14 44 -31 28 -22 39 -39 39 -57 l1 -27 14
25 c16 29 18 27 -77 93 -46 32 -65 41 -62 29z"/>
<path d="M3688 5343 c7 -3 16 -2 19 1 4 3 -2 6 -13 5 -11 0 -14 -3 -6 -6z"/>
<path d="M2243 5323 c24 -6 22 -13 -23 -103 -22 -44 -40 -85 -40 -91 0 -7 -8
-22 -17 -33 -17 -20 -17 -20 1 -6 11 8 29 14 40 13 15 -1 16 0 4 3 -10 3 -18
9 -18 14 0 4 20 50 45 101 44 94 45 110 5 108 -11 -1 -10 -3 3 -6z"/>
<path d="M3790 5306 c10 -13 -3 -22 -77 -60 -118 -61 -117 -60 -98 -76 13 -11
15 -10 9 3 -4 12 16 27 88 63 51 25 94 47 96 49 6 5 -11 35 -20 35 -6 0 -6 -6
2 -14z"/>
<path d="M2120 5278 c-26 -18 -42 -43 -70 -113 -38 -95 -54 -144 -41 -129 4 5
25 56 47 113 33 87 44 107 72 124 28 17 39 27 28 27 -1 0 -18 -10 -36 -22z"/>
<path d="M3858 5283 c7 -3 16 -2 19 1 4 3 -2 6 -13 5 -11 0 -14 -3 -6 -6z"/>
<path d="M3940 5255 c14 -8 30 -14 35 -14 6 0 -1 6 -15 14 -14 8 -29 14 -35
14 -5 0 1 -6 15 -14z"/>
<path d="M2828 5243 c6 -2 18 -2 25 0 6 3 1 5 -13 5 -14 0 -19 -2 -12 -5z"/>
<path d="M2933 5243 c15 -2 39 -2 55 0 15 2 2 4 -28 4 -30 0 -43 -2 -27 -4z"/>
<path d="M3108 5243 c12 -2 32 -2 45 0 12 2 2 4 -23 4 -25 0 -35 -2 -22 -4z"/>
<path d="M1978 5224 c-38 -20 -36 -28 2 -9 17 9 30 18 30 20 0 7 -1 6 -32 -11z"/>
<path d="M2743 5233 c9 -2 23 -2 30 0 6 3 -1 5 -18 5 -16 0 -22 -2 -12 -5z"/>
<path d="M3308 5223 c6 -2 18 -2 25 0 6 3 1 5 -13 5 -14 0 -19 -2 -12 -5z"/>
<path d="M3978 5221 c-4 -9 -199 -89 -228 -94 l-25 -4 24 -2 c14 0 70 18 125
41 56 22 115 44 131 48 l30 6 -27 6 c-15 3 -29 2 -30 -1z"/>
<path d="M2598 5213 c6 -2 18 -2 25 0 6 3 1 5 -13 5 -14 0 -19 -2 -12 -5z"/>
<path d="M3378 5213 c6 -2 18 -2 25 0 6 3 1 5 -13 5 -14 0 -19 -2 -12 -5z"/>
<path d="M1913 5181 c-12 -10 -20 -21 -18 -23 3 -3 -8 -49 -25 -104 -35 -115
-34 -111 -16 -111 8 0 11 7 9 17 -6 23 46 200 65 223 19 22 13 21 -15 -2z"/>
<path d="M4070 5196 c0 -2 7 -7 16 -10 8 -3 12 -2 9 4 -6 10 -25 14 -25 6z"/>
<path d="M3518 5183 c6 -2 18 -2 25 0 6 3 1 5 -13 5 -14 0 -19 -2 -12 -5z"/>
<path d="M2428 5173 c7 -3 16 -2 19 1 4 3 -2 6 -13 5 -11 0 -14 -3 -6 -6z"/>
<path d="M4140 5166 c0 -2 8 -10 18 -17 15 -13 16 -12 3 4 -13 16 -21 21 -21
13z"/>
<path d="M1170 5135 c-23 -24 -23 -25 -3 -25 16 0 27 -17 53 -86 17 -47 29
-88 26 -91 -3 -3 -44 11 -91 32 -70 31 -85 42 -82 57 8 27 -5 22 -44 -19 -20
-22 -27 -34 -16 -30 10 4 67 -15 144 -49 69 -30 128 -52 130 -50 3 3 -16 60
-42 127 -25 67 -44 131 -42 141 7 25 -5 23 -33 -7z"/>
<path d="M3650 5150 c8 -5 20 -10 25 -10 6 0 3 5 -5 10 -8 5 -19 10 -25 10 -5
0 -3 -5 5 -10z"/>
<path d="M1804 5134 c-18 -14 -18 -15 4 -4 12 6 22 13 22 15 0 8 -5 6 -26 -11z"/>
<path d="M4827 5123 c3 -23 -9 -42 -70 -106 -53 -55 -79 -76 -91 -71 -25 10
-19 -3 13 -25 26 -19 29 -19 25 -4 -2 12 20 44 62 88 l65 70 -6 -100 c-3 -55
-8 -120 -11 -145 l-5 -45 92 93 c67 68 97 92 110 89 25 -7 16 7 -24 35 -20 14
-27 16 -19 5 12 -14 7 -24 -44 -82 -32 -36 -61 -65 -66 -65 -5 0 -7 15 -4 33
3 17 7 76 8 131 3 90 1 99 -18 112 -19 13 -20 13 -17 -13z"/>
<path d="M4045 5094 c-55 -18 -109 -34 -120 -35 l-20 -1 20 -5 c11 -3 27 -11
35 -18 8 -6 22 -15 30 -19 8 -4 4 1 -9 12 -23 19 -23 20 -5 30 48 25 198 64
228 58 22 -4 27 -3 16 4 -25 16 -71 10 -175 -26z"/>
<path d="M2968 5019 c3 -68 0 -94 -10 -100 -8 -5 18 -9 63 -9 62 0 78 3 83 16
9 23 1 28 -14 9 -7 -9 -29 -15 -51 -15 l-39 0 0 45 c0 43 1 45 30 45 17 0 33
-7 39 -17 8 -15 10 -11 10 17 0 19 -3 29 -6 23 -2 -7 -20 -13 -39 -13 -33 0
-34 1 -34 40 0 40 0 40 40 40 27 0 42 -6 49 -17 9 -16 10 -16 11 5 0 21 -4 22
-67 22 l-68 0 3 -91z"/>
<path d="M4247 5099 c7 -7 15 -10 18 -7 3 3 -2 9 -12 12 -14 6 -15 5 -6 -5z"/>
<path d="M1738 5081 c-9 -11 -14 -21 -12 -24 2 -2 -5 -45 -17 -96 -21 -92 -20
-121 3 -121 10 0 10 2 -1 9 -11 7 -10 26 9 112 12 57 27 112 32 122 11 22 6
22 -14 -2z"/>
<path d="M2790 5093 c-84 -13 -90 -14 -90 -31 0 -12 3 -13 8 -5 4 7 19 14 32
15 23 3 25 -1 33 -57 4 -33 6 -75 4 -92 -3 -29 0 -33 21 -33 17 0 22 4 18 18
-3 9 -8 40 -11 67 -3 28 -8 62 -11 76 -4 20 0 28 14 31 11 3 27 1 36 -4 12 -7
16 -5 16 7 0 15 -15 17 -70 8z"/>
<path d="M3200 5088 c0 -10 10 -13 36 -10 32 4 35 2 31 -14 -3 -11 -9 -49 -13
-87 -4 -46 -11 -70 -23 -77 -12 -7 -9 -9 17 -10 21 0 32 5 31 13 -2 6 1 47 5
90 7 72 9 77 31 77 13 0 29 -8 34 -17 9 -16 10 -16 11 4 0 18 -7 22 -52 28
-29 3 -65 8 -80 11 -20 4 -28 1 -28 -8z"/>
<path d="M2557 5054 c-3 -4 -2 -14 2 -23 9 -17 31 -115 34 -150 1 -12 8 -21
17 -21 26 0 29 9 15 38 -7 15 -19 57 -26 95 -11 60 -24 79 -42 61z"/>
<path d="M1619 5013 l-24 -28 28 24 c15 14 27 26 27 28 0 8 -8 1 -31 -24z"/>
<path d="M3534 5018 c0 -13 -7 -51 -14 -86 -17 -74 -10 -90 44 -111 34 -13 39
-12 64 6 19 14 32 39 43 79 9 32 20 67 24 77 5 11 3 17 -6 17 -8 0 -15 -12
-16 -28 -1 -15 -10 -53 -20 -83 -14 -43 -23 -55 -42 -57 -36 -6 -68 6 -73 26
-7 27 26 152 43 163 11 7 11 9 -3 9 -9 0 -22 2 -30 5 -8 3 -13 -3 -14 -17z"/>
<path d="M4319 5030 c-8 -4 -50 -15 -94 -24 -99 -21 -118 -27 -112 -32 2 -2
55 7 118 21 141 32 136 30 118 37 -8 3 -22 2 -30 -2z"/>
<path d="M2370 5010 c-35 -11 -56 -24 -58 -35 -3 -15 -1 -15 25 3 32 23 73 37
73 25 0 -4 -14 -51 -30 -103 -17 -51 -30 -97 -30 -101 0 -4 34 4 75 18 69 23
75 27 74 51 0 26 -1 26 -9 5 -10 -25 -31 -38 -77 -47 l-32 -7 34 105 c20 65
28 106 21 105 -6 -1 -36 -9 -66 -19z"/>
<path d="M1928 4979 c-21 -11 -38 -22 -38 -24 0 -3 18 4 40 15 22 11 40 23 40
25 0 7 0 7 -42 -16z"/>
<path d="M4078 4973 c7 -3 16 -2 19 1 4 3 -2 6 -13 5 -11 0 -14 -3 -6 -6z"/>
<path d="M1569 4969 c0 -2 -2 -22 -5 -44 -2 -22 -9 -70 -14 -107 -14 -91 -13
-99 6 -91 9 3 12 8 5 12 -7 5 -5 41 5 115 8 60 13 111 10 114 -4 3 -6 3 -7 1z"/>
<path d="M1510 4939 c-22 -18 -22 -19 -3 -10 12 6 25 16 28 21 9 15 3 12 -25
-11z"/>
<path d="M4135 4940 c10 -11 20 -20 23 -20 3 0 -3 9 -13 20 -10 11 -20 20 -23
20 -3 0 3 -9 13 -20z"/>
<path d="M4484 4921 c-5 -5 -63 -16 -129 -26 -79 -12 -113 -20 -100 -25 11 -4
25 -4 30 0 6 4 54 13 108 20 53 7 100 17 103 22 8 13 0 20 -12 9z"/>
<path d="M2099 4903 l-37 -15 25 -43 c13 -24 32 -66 41 -93 l17 -48 30 12 c18
8 23 13 13 14 -10 0 -24 13 -33 30 -30 58 -15 64 54 21 38 -23 51 -26 71 -18
l25 10 -30 7 c-34 7 -85 38 -85 51 0 4 5 11 10 14 14 9 13 48 -2 63 -16 16
-54 14 -99 -5z m69 -15 c19 -19 14 -45 -10 -63 -22 -15 -24 -14 -40 22 -9 20
-14 41 -12 45 8 12 49 9 62 -4z"/>
<path d="M3888 4886 c-9 -18 -9 -19 3 -10 11 9 23 8 52 -3 20 -8 37 -19 37
-24 0 -5 -40 -29 -90 -54 -49 -25 -90 -49 -90 -54 0 -5 29 -24 65 -42 59 -31
66 -33 81 -18 15 15 14 16 -9 12 -14 -3 -43 5 -67 17 l-43 22 96 51 c54 28 97
54 97 57 0 3 -27 19 -60 36 l-61 32 -11 -22z"/>
<path d="M4511 4906 c2 -2 15 -9 29 -15 24 -11 24 -11 6 3 -16 13 -49 24 -35
12z"/>
<path d="M1444 4878 l-19 -23 23 19 c21 18 27 26 19 26 -2 0 -12 -10 -23 -22z"/>
<path d="M1780 4890 c-9 -6 -10 -10 -3 -10 6 0 15 5 18 10 8 12 4 12 -15 0z"/>
<path d="M889 4853 c-14 -16 -31 -37 -39 -48 -12 -17 -12 -18 0 -7 8 6 18 12
22 12 4 0 45 -32 90 -72 61 -52 83 -77 83 -95 -1 -12 0 -23 0 -23 1 0 16 18
34 40 17 22 25 37 16 34 -14 -6 -73 38 -162 123 -30 27 -34 35 -23 48 22 26 5
16 -21 -12z"/>
<path d="M1735 4860 c-3 -6 1 -7 9 -4 18 7 21 14 7 14 -6 0 -13 -4 -16 -10z"/>
<path d="M5117 4846 c4 -19 -10 -36 -79 -95 -53 -46 -89 -70 -101 -67 -15 4
-15 2 3 -23 31 -45 47 -54 46 -29 -1 14 25 44 82 95 73 66 85 72 104 62 14 -8
9 3 -18 35 -21 25 -39 46 -40 46 -1 0 1 -11 3 -24z"/>
<path d="M1398 4832 c10 -7 13 -35 11 -110 -2 -56 0 -105 4 -109 4 -4 6 44 5
107 -2 91 -6 114 -18 117 -12 4 -12 3 -2 -5z"/>
<path d="M1349 4803 l-24 -28 28 24 c25 23 32 31 24 31 -2 0 -14 -12 -28 -27z"/>
<path d="M1659 4803 l-24 -28 28 24 c25 23 32 31 24 31 -2 0 -14 -12 -28 -27z"/>
<path d="M1889 4789 l-46 -30 49 -75 c31 -45 48 -80 44 -90 -7 -19 -6 -18 67
26 58 35 64 44 47 70 -8 12 -10 11 -10 -7 0 -21 -42 -63 -64 -63 -12 0 -46 50
-46 67 0 13 49 35 61 28 14 -9 10 7 -6 29 -13 17 -15 17 -15 3 0 -15 -47 -55
-54 -46 -14 19 -36 55 -36 60 0 12 54 43 73 42 9 -1 15 2 12 8 -10 14 -27 9
-76 -22z"/>
<path d="M4636 4807 c7 -19 -23 -26 -116 -28 -41 0 -85 -4 -96 -7 -20 -7 -19
-10 25 -52 29 -29 34 -32 12 -8 -19 21 -31 41 -28 45 4 4 54 10 110 14 56 4
103 8 105 8 6 3 1 31 -8 36 -5 3 -7 0 -4 -8z"/>
<path d="M4340 4806 c0 -2 8 -10 18 -17 15 -13 16 -12 3 4 -13 16 -21 21 -21
13z"/>
<path d="M4110 4775 c0 -27 -89 -157 -103 -150 -32 17 40 -34 79 -55 40 -22
45 -23 60 -8 15 14 14 15 -9 11 -21 -4 -87 20 -87 32 0 10 43 75 50 75 4 0 19
-11 33 -24 25 -24 27 -24 37 -6 8 15 6 17 -8 13 -10 -2 -28 4 -40 14 l-22 18
21 32 21 33 30 -18 c17 -9 33 -25 36 -34 2 -10 8 -15 13 -12 16 10 9 22 -24
42 -19 11 -46 27 -60 37 -25 16 -27 16 -27 0z"/>
<path d="M1303 4758 c-15 -20 -25 -38 -20 -38 3 0 12 11 21 25 17 26 16 35 -1
13z"/>
<path d="M1261 4701 c-8 -5 -9 -10 -3 -12 6 -2 14 -56 19 -120 l8 -116 20 21
c11 12 16 18 11 14 -21 -17 -26 -6 -27 55 -2 108 -12 168 -28 158z"/>
<path d="M1495 4668 l-40 -43 43 40 c39 36 47 45 39 45 -2 0 -21 -19 -42 -42z"/>
<path d="M1214 4668 l-19 -23 23 19 c21 18 27 26 19 26 -2 0 -12 -10 -23 -22z"/>
<path d="M1736 4671 c-14 -15 -14 -20 -3 -24 13 -5 53 -124 45 -132 -2 -2 -31
11 -63 29 -37 21 -59 40 -59 50 2 13 -3 12 -29 -6 l-31 -22 25 -6 c13 -4 57
-26 98 -49 40 -22 76 -41 81 -41 4 0 -3 37 -17 83 -13 45 -24 94 -25 110 -1
32 0 32 -22 8z"/>
<path d="M744 4669 c-23 -30 -24 -37 -4 -32 13 3 41 -11 85 -43 66 -48 66 -49
38 -55 -15 -4 -60 -7 -99 -8 -97 -1 -126 -9 -147 -37 l-18 -24 26 10 c24 9 36
4 112 -51 46 -34 87 -68 90 -75 6 -16 19 -10 33 16 8 15 6 17 -9 13 -12 -3
-45 15 -92 49 l-73 53 55 7 c30 3 91 6 137 7 45 1 82 5 82 9 0 5 -45 41 -99
80 -55 40 -101 77 -103 83 -2 7 -7 6 -14 -2z"/>
<path d="M3007 4670 c-6 -15 -303 -1309 -309 -1344 -2 -14 7 -22 44 -32 65
-20 98 -61 98 -124 0 -117 -132 -166 -215 -80 -16 16 -32 30 -36 30 -7 0 -289
-261 -907 -838 -67 -63 -121 -116 -119 -118 1 -1 95 26 207 60 113 35 415 128
672 206 l466 143 -9 24 c-14 38 -11 102 8 134 23 38 76 63 120 56 49 -8 77
-29 98 -73 15 -32 16 -45 6 -87 -6 -28 -9 -52 -7 -54 4 -4 1333 -413 1342
-413 9 0 -1020 955 -1032 958 -7 2 -18 -6 -24 -18 -16 -31 -92 -62 -127 -54
-91 23 -130 114 -83 192 20 33 71 62 110 62 11 0 20 3 20 8 -2 36 -319 1373
-323 1362z m138 -761 c69 -300 125 -550 125 -556 0 -7 -9 -15 -21 -18 -40 -13
-98 -76 -110 -117 -21 -80 17 -165 92 -204 53 -27 141 -15 185 27 l21 20 399
-372 c458 -426 464 -432 444 -425 -8 3 -238 73 -510 156 -272 83 -516 158
-542 166 l-48 16 0 54 c0 106 -68 176 -170 176 -58 0 -101 -21 -137 -69 -24
-31 -28 -46 -28 -99 l0 -63 -350 -107 c-192 -58 -442 -135 -555 -170 -112 -34
-206 -62 -207 -61 -1 1 98 95 220 209 122 113 314 292 426 396 l204 190 34
-26 c81 -61 208 -31 252 61 27 56 27 102 -1 157 -20 39 -64 76 -112 93 -7 2
232 1070 251 1117 3 8 7 11 9 5 2 -5 60 -255 129 -556z"/>
<path d="M3007 4370 c-3 -8 -54 -224 -112 -480 -58 -256 -110 -479 -115 -497
-8 -30 -6 -33 39 -61 92 -57 119 -179 58 -270 -52 -79 -170 -106 -254 -58
l-42 24 -381 -355 c-209 -196 -379 -357 -378 -359 2 -1 227 66 501 149 l497
152 0 50 c0 64 31 119 87 159 35 24 52 29 100 29 68 0 107 -18 151 -67 30 -34
39 -62 44 -136 l3 -35 480 -147 c264 -81 490 -149 503 -153 25 -6 9 10 -440
428 l-308 286 -42 -24 c-100 -57 -219 -17 -269 90 -35 76 -18 155 47 215 24
22 51 40 60 40 12 0 14 6 9 28 -99 442 -234 1003 -238 992z m102 -604 l88
-380 -40 -30 c-59 -45 -87 -104 -87 -184 0 -111 56 -192 159 -227 57 -19 94
-19 158 4 l52 18 296 -275 c162 -152 294 -276 292 -278 -1 -1 -175 51 -386
115 l-385 118 -11 57 c-37 186 -259 262 -393 133 -42 -40 -62 -78 -77 -141
l-11 -50 -384 -117 c-212 -65 -385 -117 -387 -116 -2 2 326 310 534 501 l62
57 33 -18 c45 -24 151 -24 198 1 89 47 134 118 134 216 0 79 -25 132 -85 184
l-42 36 88 382 c48 211 90 388 94 393 3 6 7 3 9 -5 2 -8 43 -186 91 -394z"/>
<path d="M4780 4662 c0 -8 -37 -13 -122 -14 l-123 -2 119 -3 c110 -3 152 4
133 24 -4 3 -7 1 -7 -5z"/>
<path d="M4317 4637 c4 -19 -8 -38 -54 -86 -57 -59 -58 -62 -41 -78 18 -16 18
-16 12 0 -4 11 8 34 37 69 l44 52 5 -103 5 -102 60 71 c39 46 65 68 74 65 10
-4 9 1 -4 15 l-19 21 -10 -25 c-10 -21 -70 -96 -78 -96 -2 0 -2 42 0 93 3 81
1 95 -16 110 -19 17 -19 17 -15 -6z"/>
<path d="M4812 4624 c10 -10 20 -16 22 -13 3 3 -5 11 -17 18 -21 13 -21 12 -5
-5z"/>
<path d="M4590 4585 c19 -19 36 -35 39 -35 3 0 -10 16 -29 35 -19 19 -36 35
-39 35 -3 0 10 -16 29 -35z"/>
<path d="M5174 4602 c-51 -33 -74 -69 -74 -120 0 -38 5 -50 39 -83 28 -28 46
-39 67 -38 28 1 28 1 4 8 -41 10 -58 24 -73 59 -19 47 -11 76 34 116 69 63
150 60 182 -6 17 -35 17 -40 3 -70 -9 -17 -15 -32 -14 -34 2 -1 19 11 38 27
22 19 29 29 18 29 -9 0 -18 12 -21 29 -4 17 -19 44 -35 62 -24 27 -37 33 -83
36 -41 3 -61 0 -85 -15z"/>
<path d="M1140 4554 c1 -44 28 -236 35 -242 4 -4 4 9 1 28 -3 19 -10 78 -16
130 -10 86 -20 132 -20 84z"/>
<path d="M1374 4548 l-19 -23 23 19 c21 18 27 26 19 26 -2 0 -12 -10 -23 -22z"/>
<path d="M4885 4550 c10 -11 20 -20 23 -20 3 0 -3 9 -13 20 -10 11 -20 20 -23
20 -3 0 3 -9 13 -20z"/>
<path d="M1094 4528 l-19 -23 23 19 c21 18 27 26 19 26 -2 0 -12 -10 -23 -22z"/>
<path d="M4678 4514 c6 -3 9 -11 5 -17 -5 -9 -3 -9 8 -1 9 8 36 9 84 3 91 -10
163 -10 90 1 -74 11 -202 20 -187 14z"/>
<path d="M1501 4476 c-23 -24 -23 -26 -5 -26 27 0 139 -114 129 -132 -5 -7 4
-2 19 12 24 22 25 25 9 31 -21 8 -119 108 -125 127 -2 9 -11 5 -27 -12z"/>
<path d="M4690 4476 c0 -2 8 -10 18 -17 15 -13 16 -12 3 4 -13 16 -21 21 -21
13z"/>
<path d="M1036 4443 c-6 -14 -5 -15 5 -6 7 7 10 15 7 18 -3 3 -9 -2 -12 -12z"/>
<path d="M4530 4441 c0 -13 -104 -113 -126 -121 -12 -4 -9 -11 12 -30 15 -14
24 -19 19 -12 -8 15 59 91 108 122 27 17 27 17 7 35 -12 11 -20 13 -20 6z"/>
<path d="M4995 4406 c10 -14 19 -26 22 -26 7 0 -17 39 -28 46 -6 3 -3 -5 6
-20z"/>
<path d="M1021 4408 c-1 -25 47 -249 55 -257 4 -3 4 5 1 19 -2 14 -15 72 -26
130 -24 115 -29 134 -30 108z"/>
<path d="M1249 4403 c-13 -16 -12 -17 4 -4 9 7 17 15 17 17 0 8 -8 3 -21 -13z"/>
<path d="M4762 4395 c15 -16 29 -27 31 -24 3 2 -10 15 -27 28 l-31 24 27 -28z"/>
<path d="M979 4373 c-13 -16 -12 -17 4 -4 9 7 17 15 17 17 0 8 -8 3 -21 -13z"/>
<path d="M1393 4358 c-16 -17 -16 -18 0 -12 11 4 34 -7 68 -32 l50 -39 -92 -3
c-86 -3 -119 -12 -119 -33 0 -5 7 -6 15 -3 13 6 116 -70 137 -101 5 -6 13 -4
24 7 16 16 16 17 -2 13 -12 -3 -36 11 -69 40 l-50 45 105 0 105 1 -45 37 c-25
20 -59 51 -77 68 -32 31 -33 31 -50 12z"/>
<path d="M4807 4363 c-4 -3 -7 -11 -7 -17 0 -6 4 -4 9 3 8 13 22 13 106 -3 78
-15 99 -16 108 -6 9 10 9 11 0 6 -7 -4 -49 0 -94 9 -90 17 -112 18 -122 8z"/>
<path d="M1199 4343 c-13 -16 -12 -17 4 -4 9 7 17 15 17 17 0 8 -8 3 -21 -13z"/>
<path d="M523 4327 c-11 -24 -10 -27 5 -27 28 0 161 -79 178 -106 15 -22 15
-29 2 -62 -23 -62 -52 -64 -154 -14 -56 28 -88 50 -91 63 -5 17 -9 14 -30 -22
-13 -23 -21 -44 -18 -47 3 -3 5 0 5 6 0 21 28 13 109 -28 81 -41 126 -49 153
-27 48 39 64 121 30 155 -10 10 -52 37 -94 60 -42 23 -78 49 -80 59 -2 13 -6
11 -15 -10z"/>
<path d="M4590 4293 c-24 -9 -61 -46 -71 -72 -18 -47 25 -121 71 -121 9 0 4 6
-10 13 -55 28 -56 97 -1 136 45 32 73 35 105 10 23 -18 27 -28 24 -55 -4 -32
-3 -33 14 -17 10 9 14 19 10 22 -5 3 -13 16 -17 29 -13 42 -80 71 -125 55z"/>
<path d="M4870 4245 c13 -14 26 -25 28 -25 3 0 -5 11 -18 25 -13 14 -26 25
-28 25 -3 0 5 -11 18 -25z"/>
<path d="M5090 4261 c0 -6 4 -13 10 -16 6 -3 7 1 4 9 -7 18 -14 21 -14 7z"/>
<path d="M906 4231 c-4 -5 -2 -11 3 -13 9 -3 54 -143 71 -218 4 -19 8 -26 9
-16 0 11 9 29 19 40 16 19 16 20 0 7 -21 -16 -24 -9 -63 122 -26 88 -29 94
-39 78z"/>
<path d="M1119 4223 c-13 -16 -12 -17 4 -4 9 7 17 15 17 17 0 8 -8 3 -21 -13z"/>
<path d="M5247 4206 c10 -21 19 -32 22 -24 6 19 22 28 53 28 23 0 32 -8 52
-49 l25 -48 -28 -27 c-21 -20 -30 -23 -39 -14 -18 18 -14 2 10 -45 18 -34 23
-38 26 -21 1 11 41 67 88 125 46 57 79 106 73 108 -6 2 -69 -2 -141 -8 -102
-9 -133 -9 -145 0 -11 10 -10 4 4 -25z m217 -8 c-10 -13 -27 -33 -38 -46 l-20
-23 -18 33 c-9 18 -17 36 -18 40 0 9 27 15 74 17 l39 1 -19 -22z"/>
<path d="M876 4203 c-6 -14 -5 -15 5 -6 7 7 10 15 7 18 -3 3 -9 -2 -12 -12z"/>
<path d="M4907 4213 c-4 -3 -7 -11 -7 -17 0 -6 4 -5 9 3 8 12 26 9 113 -14 56
-15 114 -37 127 -49 l25 -21 -25 31 c-13 17 -27 30 -30 28 -3 -2 -46 8 -95 21
-96 27 -107 28 -117 18z"/>
<path d="M1220 4120 c-8 -16 -8 -18 5 -14 14 6 92 -33 128 -64 23 -20 22 -53
-4 -81 -24 -25 -38 -23 -116 21 -28 16 -53 36 -55 44 -2 10 -9 4 -22 -17 -10
-17 -14 -29 -7 -25 6 4 42 -10 79 -30 82 -45 114 -42 139 10 20 43 11 81 -25
102 -15 9 -46 29 -69 45 -41 27 -43 28 -53 9z"/>
<path d="M4940 4124 c0 -5 7 -18 15 -28 8 -11 15 -16 15 -10 0 5 -7 18 -15 28
-8 11 -15 16 -15 10z"/>
<path d="M4795 4100 c7 -11 -106 -86 -142 -96 -19 -5 -21 -9 -12 -26 9 -17 13
-18 27 -5 38 32 143 88 153 82 6 -4 3 7 -5 24 -9 17 -19 31 -22 31 -3 0 -2 -4
1 -10z"/>
<path d="M821 4075 c-1 -23 67 -204 84 -223 9 -11 14 -10 26 5 13 16 12 17 -3
4 -15 -11 -19 -11 -23 0 -2 8 -20 55 -39 104 -18 50 -36 100 -39 110 -5 20 -5
20 -6 0z"/>
<path d="M1030 4070 c-6 -11 -8 -20 -6 -20 3 0 10 9 16 20 6 11 8 20 6 20 -3
0 -10 -9 -16 -20z"/>
<path d="M5190 4070 c6 -11 13 -20 16 -20 2 0 0 9 -6 20 -6 11 -13 20 -16 20
-2 0 0 -9 6 -20z"/>
<path d="M4997 4053 c-4 -3 -7 -11 -7 -17 0 -6 4 -5 9 3 8 12 27 8 118 -25 98
-37 110 -44 131 -80 13 -21 21 -30 17 -19 -11 35 -50 85 -66 85 -8 0 -52 14
-97 30 -88 32 -95 34 -105 23z"/>
<path d="M766 3985 c-9 -26 -7 -32 5 -12 6 10 9 21 6 23 -2 3 -7 -2 -11 -11z"/>
<path d="M966 3945 c-9 -26 -7 -32 5 -12 6 10 9 21 6 23 -2 3 -7 -2 -11 -11z"/>
<path d="M751 3934 c0 -11 3 -14 6 -6 3 7 2 16 -1 19 -3 4 -6 -2 -5 -13z"/>
<path d="M5060 3906 c8 -11 14 -29 13 -40 -1 -15 0 -16 3 -3 7 24 17 22 123
-28 76 -35 98 -50 112 -77 10 -18 18 -29 19 -25 0 4 -7 21 -14 36 -11 20 -40
40 -99 68 -46 23 -95 44 -108 48 -13 4 -33 15 -44 24 -19 15 -19 15 -5 -3z"/>
<path d="M741 3894 c0 -11 3 -14 6 -6 3 7 2 16 -1 19 -3 4 -6 -2 -5 -13z"/>
<path d="M716 3848 c-9 -12 -16 -27 -16 -33 1 -5 8 2 16 18 8 15 19 27 25 27
6 0 30 -43 54 -95 25 -52 48 -95 53 -95 11 0 32 22 32 34 0 5 -6 1 -14 -10 -8
-10 -16 -17 -18 -14 -3 3 -24 47 -48 98 -24 50 -49 92 -56 92 -7 0 -20 -10
-28 -22z"/>
<path d="M5291 3834 c0 -11 3 -14 6 -6 3 7 2 16 -1 19 -3 4 -6 -2 -5 -13z"/>
<path d="M382 3820 c-13 -6 -29 -24 -36 -42 -36 -85 65 -158 129 -93 41 40 33
105 -16 130 -32 17 -44 18 -77 5z"/>
<path d="M1095 3818 c-51 -29 -61 -93 -20 -133 41 -42 102 -30 130 24 19 38 4
86 -36 106 -33 18 -47 18 -74 3z"/>
<path d="M4812 3820 c-13 -6 -30 -26 -38 -45 -13 -31 -13 -39 1 -65 28 -55 85
-66 129 -25 38 35 36 85 -5 119 -32 27 -50 31 -87 16z"/>
<path d="M5539 3801 c-37 -37 -38 -77 -4 -114 35 -37 77 -36 116 2 17 18 29
40 29 56 0 35 -50 85 -85 85 -16 0 -38 -12 -56 -29z"/>
<path d="M682 3722 c-2 -23 13 -59 51 -123 28 -49 57 -99 63 -110 11 -20 11
-20 17 0 3 12 1 19 -3 16 -13 -8 -118 177 -123 216 l-4 34 -1 -33z"/>
<path d="M5133 3705 c-3 -9 -3 -19 1 -22 3 -4 6 1 6 10 0 25 11 22 106 -33 67
-39 90 -47 100 -39 8 6 14 16 14 22 0 6 -6 3 -12 -6 -12 -15 -21 -11 -100 33
-95 55 -106 58 -115 35z"/>
<path d="M5141 3654 c0 -11 3 -14 6 -6 3 7 2 16 -1 19 -3 4 -6 -2 -5 -13z"/>
<path d="M852 3640 c0 -14 2 -19 5 -12 2 6 2 18 0 25 -3 6 -5 1 -5 -13z"/>
<path d="M641 3614 c0 -11 3 -14 6 -6 3 7 2 16 -1 19 -3 4 -6 -2 -5 -13z"/>
<path d="M841 3594 c0 -11 3 -14 6 -6 3 7 2 16 -1 19 -3 4 -6 -2 -5 -13z"/>
<path d="M633 3535 c0 -22 2 -30 4 -17 2 12 2 30 0 40 -3 9 -5 -1 -4 -23z"/>
<path d="M5177 3558 c7 -8 11 -23 9 -34 -2 -10 -1 -13 1 -6 7 20 21 14 121
-54 54 -36 88 -57 77 -46 -27 26 -223 158 -208 140z"/>
<path d="M5381 3514 c0 -11 3 -14 6 -6 3 7 2 16 -1 19 -3 4 -6 -2 -5 -13z"/>
<path d="M615 3479 c-4 -6 -4 -13 -1 -16 3 -4 6 -1 6 5 0 33 33 2 91 -83 56
-84 64 -92 71 -74 5 12 6 24 3 27 -3 3 -5 0 -5 -7 0 -22 -19 -1 -76 80 -53 75
-75 92 -89 68z"/>
<path d="M5392 3465 c0 -16 2 -22 5 -12 2 9 2 23 0 30 -3 6 -5 -1 -5 -18z"/>
<path d="M5192 3460 c0 -14 2 -19 5 -12 2 6 2 18 0 25 -3 6 -5 1 -5 -13z"/>
<path d="M602 3425 c0 -16 2 -22 5 -12 2 9 2 23 0 30 -3 6 -5 -1 -5 -18z"/>
<path d="M801 3414 c0 -11 3 -14 6 -6 3 7 2 16 -1 19 -3 4 -6 -2 -5 -13z"/>
<path d="M5664 3382 c-6 -4 -27 -38 -46 -77 -20 -40 -42 -71 -52 -73 -27 -6
-46 17 -46 54 0 28 6 38 33 54 31 19 31 20 7 19 -28 -1 -82 -16 -63 -18 9 -1
11 -14 7 -45 -6 -39 -3 -48 19 -70 51 -51 103 -22 141 77 13 34 24 49 43 53
33 9 56 -16 55 -56 -1 -35 -16 -58 -47 -70 -17 -7 -16 -9 10 -9 29 0 82 17 58
18 -8 1 -10 15 -7 49 5 38 2 52 -16 75 -21 27 -69 37 -96 19z"/>
<path d="M502 3372 c-2 -11 -24 -12 -111 -7 -109 7 -110 7 -135 -18 -22 -22
-26 -35 -26 -80 0 -75 24 -96 122 -108 40 -4 83 -8 96 -9 14 0 26 -9 32 -22 8
-20 9 -19 9 13 1 33 -1 36 -24 31 -14 -2 -59 -1 -101 3 -62 6 -82 12 -100 31
-28 27 -31 69 -8 102 13 19 24 22 87 22 40 -1 92 -5 117 -10 25 -4 46 -7 48
-5 2 2 2 18 -1 37 -2 18 -5 27 -5 20z"/>
<path d="M5307 3299 c43 -34 86 -69 96 -78 10 -8 17 -11 16 -6 -1 6 1 18 5 27
4 9 6 27 3 40 -3 17 -5 15 -6 -9 0 -19 -6 -33 -13 -33 -7 0 -47 27 -88 60 -41
33 -79 60 -83 60 -5 0 27 -28 70 -61z"/>
<path d="M5411 3334 c0 -11 3 -14 6 -6 3 7 2 16 -1 19 -3 4 -6 -2 -5 -13z"/>
<path d="M600 3312 c0 -11 146 -192 155 -192 1 0 5 7 8 14 4 9 1 13 -6 10 -12
-4 -97 90 -139 155 -10 14 -18 20 -18 13z"/>
<path d="M5222 3270 c0 -19 2 -27 5 -17 2 9 2 25 0 35 -3 9 -5 1 -5 -18z"/>
<path d="M581 3274 c0 -11 3 -14 6 -6 3 7 2 16 -1 19 -3 4 -6 -2 -5 -13z"/>
<path d="M772 3190 c0 -19 2 -27 5 -17 2 9 2 25 0 35 -3 9 -5 1 -5 -18z"/>
<path d="M572 3180 c0 -19 2 -27 5 -17 2 9 2 25 0 35 -3 9 -5 1 -5 -18z"/>
<path d="M5421 3184 c0 -11 3 -14 6 -6 3 7 2 16 -1 19 -3 4 -6 -2 -5 -13z"/>
<path d="M5242 3185 c4 -4 2 -15 -5 -24 -11 -14 -10 -14 5 -2 16 12 26 6 91
-58 41 -39 77 -71 80 -71 9 0 -128 130 -157 149 -11 8 -18 11 -14 6z"/>
<path d="M5433 3095 c0 -33 2 -45 4 -27 2 18 2 45 0 60 -2 15 -4 0 -4 -33z"/>
<path d="M5233 3105 c0 -22 2 -30 4 -17 2 12 2 30 0 40 -3 9 -5 -1 -4 -23z"/>
<path d="M5780 3116 c0 -18 -45 -26 -151 -26 -73 0 -90 3 -98 18 -8 13 -10 2
-10 -43 0 -43 3 -54 9 -39 7 19 19 22 120 28 79 4 116 3 126 -5 12 -9 14 -3
14 35 0 25 -2 46 -5 46 -3 0 -5 -6 -5 -14z"/>
<path d="M761 3094 c0 -11 3 -14 6 -6 3 7 2 16 -1 19 -3 4 -6 -2 -5 -13z"/>
<path d="M576 3091 c-4 -5 2 -7 11 -5 12 3 36 -16 76 -61 32 -36 66 -69 76
-74 9 -5 -17 26 -58 70 -73 76 -93 89 -105 70z"/>
<path d="M467 3061 c-4 -16 -18 -20 -100 -26 -109 -8 -147 -2 -148 23 0 11 -2
12 -6 4 -3 -7 -2 -24 1 -38 6 -21 9 -23 26 -14 11 6 57 9 102 8 l83 -3 -102
-85 c-56 -47 -102 -88 -102 -92 -1 -5 57 -8 128 -8 115 0 130 -2 134 -17 3
-10 5 5 5 32 1 39 -1 45 -8 28 -9 -22 -15 -23 -101 -23 l-91 0 96 82 c86 73
96 85 96 115 0 37 -5 43 -13 14z"/>
<path d="M5241 3030 c-1 -8 11 -29 27 -46 15 -17 55 -64 90 -103 34 -39 62
-68 62 -63 0 5 -14 24 -31 43 -86 95 -137 155 -142 169 -5 13 -6 13 -6 0z"/>
<path d="M762 2990 c0 -19 2 -27 5 -17 2 9 2 25 0 35 -3 9 -5 1 -5 -18z"/>
<path d="M572 2965 c0 -16 2 -22 5 -12 2 9 2 23 0 30 -3 6 -5 -1 -5 -18z"/>
<path d="M5433 2925 c0 -38 2 -53 4 -32 2 20 2 52 0 70 -2 17 -4 1 -4 -38z"/>
<path d="M5694 2940 c-11 -4 -35 -30 -52 -58 -46 -71 -65 -86 -91 -72 -39 20
-25 85 23 106 l31 13 -43 1 c-24 0 -41 -4 -38 -9 3 -5 1 -23 -5 -41 -23 -64
37 -129 91 -100 11 6 38 37 60 70 47 69 81 80 102 35 17 -37 0 -76 -42 -97
l-35 -18 45 0 45 0 3 68 c3 55 0 71 -15 84 -25 21 -54 28 -79 18z"/>
<path d="M5233 2885 c0 -27 2 -38 4 -22 2 15 2 37 0 50 -2 12 -4 0 -4 -28z"/>
<path d="M581 2896 c-7 -8 -11 -30 -8 -48 l4 -33 1 37 c1 20 6 39 10 42 5 3
49 -30 98 -73 l90 -79 0 67 c1 55 0 57 -3 14 -2 -29 -7 -53 -10 -53 -4 0 -36
26 -72 58 -99 86 -96 85 -110 68z"/>
<path d="M5237 2811 c-3 -13 -1 -18 8 -15 7 3 39 -31 75 -80 35 -47 67 -83 71
-80 4 2 -5 16 -19 32 -15 15 -50 58 -78 95 -42 55 -52 64 -57 48z"/>
<path d="M582 2770 c0 -14 2 -19 5 -12 2 6 2 18 0 25 -3 6 -5 1 -5 -13z"/>
<path d="M5421 2764 c0 -11 3 -14 6 -6 3 7 2 16 -1 19 -3 4 -6 -2 -5 -13z"/>
<path d="M5222 2750 c0 -14 2 -19 5 -12 2 6 2 18 0 25 -3 6 -5 1 -5 -13z"/>
<path d="M491 2744 c-1 -26 -21 -31 -156 -40 -88 -6 -95 -6 -95 11 0 10 -2 16
-5 13 -3 -3 -1 -29 4 -59 5 -30 9 -46 10 -37 1 21 13 24 135 38 92 11 101 10
113 -6 12 -17 13 -17 12 2 -1 32 -17 101 -18 78z"/>
<path d="M610 2708 c9 -7 51 -40 95 -72 44 -32 86 -63 93 -69 9 -7 11 -6 6 7
-3 9 -10 16 -16 16 -5 0 -44 26 -86 58 -74 56 -127 91 -92 60z"/>
<path d="M5510 2705 c0 -11 -3 -31 -5 -45 -3 -14 -3 -19 1 -12 3 6 17 12 31
12 37 0 153 -22 153 -30 0 -3 -49 -32 -110 -65 -72 -39 -110 -66 -110 -77 0
-9 -3 -25 -7 -35 -4 -13 -1 -11 14 6 l20 24 94 -17 c128 -24 129 -24 130 -49
1 -20 2 -20 9 3 11 36 12 69 1 51 -7 -11 -24 -10 -106 4 l-97 18 114 63 c62
35 116 64 121 64 4 0 7 4 7 9 0 4 -54 18 -121 31 -102 19 -122 25 -129 44 -8
20 -9 20 -10 1z"/>
<path d="M5212 2680 c0 -19 2 -27 5 -17 2 9 2 25 0 35 -3 9 -5 1 -5 -18z"/>
<path d="M5412 2680 c0 -14 2 -19 5 -12 2 6 2 18 0 25 -3 6 -5 1 -5 -13z"/>
<path d="M592 2665 c0 -16 2 -22 5 -12 2 9 2 23 0 30 -3 6 -5 -1 -5 -18z"/>
<path d="M792 2665 c0 -16 2 -22 5 -12 2 9 2 23 0 30 -3 6 -5 -1 -5 -18z"/>
<path d="M5220 2637 c0 -3 28 -48 62 -99 34 -51 65 -106 69 -123 7 -29 7 -29
8 -4 1 17 -23 62 -65 125 -70 106 -74 111 -74 101z"/>
<path d="M601 2614 c0 -11 3 -14 6 -6 3 7 2 16 -1 19 -3 4 -6 -2 -5 -13z"/>
<path d="M5393 2585 c0 -22 2 -30 4 -17 2 12 2 30 0 40 -3 9 -5 -1 -4 -23z"/>
<path d="M504 2579 c-5 -9 -58 -51 -117 -94 -59 -43 -104 -81 -100 -85 4 -4
58 -15 118 -25 61 -10 122 -24 138 -31 29 -13 32 -9 21 34 -6 20 -8 21 -18 7
-11 -15 -20 -15 -106 0 -52 9 -96 18 -97 19 -8 8 160 117 172 112 16 -6 18 11
6 54 -6 21 -8 23 -17 9z"/>
<path d="M610 2566 c0 -8 4 -17 9 -20 5 -4 7 3 4 14 -6 23 -13 26 -13 6z"/>
<path d="M5191 2564 c0 -11 3 -14 6 -6 3 7 2 16 -1 19 -3 4 -6 -2 -5 -13z"/>
<path d="M5181 2524 c0 -11 3 -14 6 -6 3 7 2 16 -1 19 -3 4 -6 -2 -5 -13z"/>
<path d="M636 2515 c4 -8 11 -15 16 -15 9 0 72 -37 166 -98 12 -8 22 -10 22
-6 0 5 -10 14 -23 20 -12 5 -59 33 -104 62 -45 28 -80 45 -77 37z"/>
<path d="M821 2514 c0 -11 3 -14 6 -6 3 7 2 16 -1 19 -3 4 -6 -2 -5 -13z"/>
<path d="M5381 2504 c0 -11 3 -14 6 -6 3 7 2 16 -1 19 -3 4 -6 -2 -5 -13z"/>
<path d="M831 2464 c0 -11 3 -14 6 -6 3 7 2 16 -1 19 -3 4 -6 -2 -5 -13z"/>
<path d="M631 2454 c0 -11 3 -14 6 -6 3 7 2 16 -1 19 -3 4 -6 -2 -5 -13z"/>
<path d="M5176 2455 c-3 -8 -1 -15 3 -15 15 0 104 -172 112 -215 6 -39 7 -39
8 -7 1 31 -15 67 -88 200 -20 36 -30 48 -35 37z"/>
<path d="M5153 2415 c-3 -9 -3 -18 -1 -21 3 -3 8 4 11 16 6 23 -1 27 -10 5z"/>
<path d="M2684 2375 c-6 -20 -9 -143 -2 -139 3 2 12 27 19 54 10 40 18 52 37
57 38 9 212 -3 225 -16 13 -13 16 -532 3 -612 l-7 -47 -57 -10 c-47 -8 -25 -9
128 -9 153 0 174 1 123 9 l-61 10 -7 101 c-9 129 -3 553 8 563 5 5 60 9 124 9
l116 0 20 -58 c10 -32 20 -57 22 -55 1 2 0 37 -2 78 l-5 75 -340 0 c-218 0
-342 -4 -344 -10z m339 -363 c2 -320 1 -342 -15 -342 -17 0 -18 23 -18 346 0
304 2 345 15 342 13 -3 16 -48 18 -346z"/>
<path d="M5445 2368 c-5 -14 -45 -161 -45 -165 0 -1 6 0 14 3 13 5 105 -17
204 -47 18 -6 32 -17 32 -26 0 -29 8 -9 33 84 l26 93 -32 22 -31 22 17 -24
c20 -28 22 -64 6 -109 -10 -28 -15 -32 -36 -26 -14 3 -39 9 -55 12 -28 6 -30
8 -24 42 3 20 14 43 25 52 20 16 19 17 -22 27 -35 9 -39 9 -24 -2 20 -15 21
-40 4 -77 l-12 -27 -48 15 c-46 13 -48 16 -43 41 14 58 28 82 50 82 17 0 18 2
6 10 -21 13 -40 12 -45 -2z"/>
<path d="M5341 2354 c0 -11 3 -14 6 -6 3 7 2 16 -1 19 -3 4 -6 -2 -5 -13z"/>
<path d="M691 2322 c0 -4 52 -32 115 -63 63 -30 109 -49 102 -42 -17 17 -218
114 -217 105z"/>
<path d="M681 2274 c0 -11 3 -14 6 -6 3 7 2 16 -1 19 -3 4 -6 -2 -5 -13z"/>
<path d="M5316 2273 c-6 -14 -5 -15 5 -6 7 7 10 15 7 18 -3 3 -9 -2 -12 -12z"/>
<path d="M891 2264 c0 -11 3 -14 6 -6 3 7 2 16 -1 19 -3 4 -6 -2 -5 -13z"/>
<path d="M5130 2280 c0 -3 20 -52 45 -109 25 -57 46 -115 46 -130 l2 -26 4 25
c3 13 12 30 21 37 15 11 15 11 -3 7 -18 -5 -26 6 -53 73 -32 75 -61 134 -62
123z"/>
<path d="M582 2258 c-7 -7 -59 -27 -115 -44 -90 -28 -104 -30 -119 -17 -12 11
-9 -8 15 -86 l30 -101 36 0 36 1 -31 13 c-31 14 -52 49 -56 96 -3 21 3 27 47
41 30 10 54 13 60 7 5 -4 10 -28 10 -53 0 -42 1 -44 25 -38 24 5 57 27 35 23
-24 -5 -34 2 -44 31 -6 18 -11 38 -11 44 0 12 88 40 97 31 2 -2 10 -24 18 -49
12 -39 11 -46 -3 -61 -14 -13 -14 -16 -2 -16 38 1 39 14 12 103 -22 71 -30 85
-40 75z"/>
<path d="M5086 2215 c-9 -26 -7 -32 5 -12 6 10 9 21 6 23 -2 3 -7 -2 -11 -11z"/>
<path d="M926 2177 c3 -10 9 -15 12 -12 3 3 0 11 -7 18 -10 9 -11 8 -5 -6z"/>
<path d="M731 2160 c7 -14 12 -34 12 -45 -1 -16 -1 -16 3 -2 3 9 9 17 12 17 4
0 52 -19 107 -41 93 -39 121 -58 153 -105 7 -10 6 -5 -2 12 -8 17 -22 36 -30
43 -9 8 -16 25 -17 40 -1 23 -2 24 -7 5 -7 -21 -9 -21 -110 20 -56 24 -109 51
-118 62 -14 18 -14 17 -3 -6z"/>
<path d="M4723 2138 c-5 -7 -24 -38 -41 -69 -29 -52 -31 -58 -16 -70 15 -12
16 -11 10 7 -3 11 0 28 7 38 12 16 18 15 84 -24 40 -22 73 -48 75 -56 2 -10 9
-5 22 17 10 17 14 29 7 25 -9 -6 -126 53 -159 80 -11 8 22 44 41 44 18 0 19 2
7 10 -20 13 -26 12 -37 -2z"/>
<path d="M5061 2135 c-3 -37 73 -245 89 -245 11 0 12 2 3 8 -12 8 -77 184 -86
232 -3 19 -5 20 -6 5z"/>
<path d="M1270 2132 c0 -14 -148 -94 -160 -87 -7 4 -4 -7 4 -24 9 -17 19 -31
22 -31 3 0 2 4 -1 10 -5 8 49 50 65 50 3 0 13 -14 22 -30 18 -32 44 -38 79
-20 25 14 24 50 -1 100 -20 38 -30 49 -30 32z m30 -66 c0 -45 -59 -65 -80 -26
-9 17 -5 22 27 39 43 22 53 19 53 -13z"/>
<path d="M750 2085 c0 -5 5 -17 10 -25 5 -8 10 -10 10 -5 0 6 -5 17 -10 25 -5
8 -10 11 -10 5z"/>
<path d="M5612 2048 c-7 -7 -63 -13 -152 -16 l-141 -5 100 -102 c56 -56 101
-108 101 -116 1 -8 7 1 15 20 19 42 19 47 -1 31 -13 -11 -19 -9 -42 13 l-26
26 20 48 c17 42 24 48 52 51 19 2 39 -1 46 -7 10 -8 17 -2 29 29 17 44 17 46
-1 28z m-127 -65 c-4 -10 -12 -31 -17 -46 l-11 -29 -38 38 c-22 21 -39 42 -39
46 0 4 25 8 56 8 50 0 55 -2 49 -17z"/>
<path d="M2426 2043 l31 -4 8 -110 c4 -60 4 -163 0 -229 -7 -112 -9 -121 -29
-125 -11 -2 -30 -6 -41 -8 -11 -3 36 -5 105 -4 69 0 107 3 85 6 l-40 6 -5 89
c-3 50 -5 117 -4 150 0 34 1 96 2 139 l2 77 40 0 c55 0 94 -22 114 -64 41 -87
1 -163 -99 -187 -27 -6 -25 -7 16 -8 125 -3 209 119 149 217 -32 52 -69 62
-227 60 -76 0 -124 -3 -107 -5z m74 -238 c0 -150 -4 -235 -10 -235 -6 0 -10
85 -10 235 0 150 4 235 10 235 6 0 10 -85 10 -235z m191 212 c44 -29 64 -99
46 -155 -11 -34 -65 -83 -91 -82 -6 1 1 7 16 16 78 42 75 176 -4 224 -19 11
-26 20 -17 20 9 0 31 -10 50 -23z"/>
<path d="M780 2020 c6 -11 13 -20 16 -20 2 0 0 9 -6 20 -6 11 -13 20 -16 20
-2 0 0 -9 6 -20z"/>
<path d="M3351 2033 l26 -4 6 -127 c4 -70 3 -172 -1 -227 l-7 -100 -35 -6
c-19 -4 17 -6 80 -6 63 0 99 2 80 6 l-35 6 -9 97 c-4 54 -6 104 -3 113 5 11
23 15 76 15 l70 0 10 -32 c8 -28 9 -21 9 42 0 66 -1 71 -10 43 -11 -33 -11
-33 -78 -33 -65 0 -68 1 -75 27 -3 15 -3 60 1 100 l6 73 83 0 82 0 11 -32 10
-33 1 43 1 42 -162 -1 c-90 -1 -151 -4 -137 -6z m69 -233 c0 -147 -4 -230 -10
-230 -6 0 -10 83 -10 230 0 147 4 230 10 230 6 0 10 -83 10 -230z"/>
<path d="M4995 2009 c-4 -6 -5 -12 -2 -15 2 -3 7 2 10 11 7 17 1 20 -8 4z"/>
<path d="M670 2001 c0 -4 -46 -29 -102 -56 -82 -38 -106 -45 -120 -36 -15 10
-15 5 5 -35 13 -29 23 -40 25 -30 5 22 99 70 105 53 2 -6 -12 -44 -32 -84 -34
-71 -35 -73 -19 -105 l16 -33 0 32 c-1 24 32 99 57 131 1 2 19 -5 38 -14 33
-16 37 -16 61 0 39 25 42 56 11 125 -24 54 -45 78 -45 52z m28 -53 c21 -21 14
-66 -13 -84 -30 -19 -60 -11 -82 22 -18 28 -20 25 32 52 48 25 48 25 63 10z"/>
<path d="M815 1973 c20 -21 206 -88 226 -81 6 2 -37 19 -97 37 -60 18 -118 40
-129 49 l-20 16 20 -21z"/>
<path d="M4978 1958 c-3 -15 -2 -31 2 -35 4 -4 18 -50 30 -101 23 -96 40 -118
66 -88 8 9 9 11 2 6 -7 -6 -17 -10 -23 -10 -8 0 -42 119 -70 245 -1 6 -4 -2
-7 -17z"/>
<path d="M1030 1955 c0 -5 5 -17 10 -25 5 -8 10 -10 10 -5 0 6 -5 17 -10 25
-5 8 -10 11 -10 5z"/>
<path d="M5186 1943 c-6 -14 -5 -15 5 -6 7 7 10 15 7 18 -3 3 -9 -2 -12 -12z"/>
<path d="M4560 1878 c-24 -35 -37 -58 -30 -51 10 9 26 3 73 -29 32 -22 67 -48
77 -58 18 -18 20 -16 54 36 30 45 35 58 26 74 -14 27 -17 25 -12 -8 2 -18 -4
-37 -18 -55 -22 -28 -29 -28 -74 7 -18 14 -18 17 -2 41 9 14 24 25 33 25 15 0
14 2 -2 14 -18 13 -21 12 -31 -14 -17 -40 -30 -44 -65 -20 l-30 22 25 32 c13
17 31 30 40 30 9 -1 13 2 10 7 -12 21 -34 5 -74 -53z"/>
<path d="M1315 1921 c-69 -30 -89 -114 -39 -165 64 -63 174 -10 174 84 0 59
-78 106 -135 81z m105 -31 c26 -26 25 -51 -1 -84 -41 -52 -106 -70 -141 -39
-37 33 -14 89 50 123 47 25 67 25 92 0z"/>
<path d="M830 1914 c0 -15 55 -100 72 -110 7 -4 6 1 -4 12 -9 10 -28 39 -42
64 -14 25 -26 40 -26 34z"/>
<path d="M4905 1849 c-4 -6 -5 -12 -2 -15 2 -3 7 2 10 11 7 17 1 20 -8 4z"/>
<path d="M5250 1849 c0 -6 -13 -26 -30 -45 -42 -48 -49 -97 -21 -149 39 -73
125 -104 191 -70 31 16 71 81 69 112 0 10 -9 -1 -19 -24 -21 -47 -44 -63 -92
-63 -67 0 -148 69 -148 126 0 37 46 82 87 86 l36 3 -36 17 c-23 11 -37 14 -37
7z"/>
<path d="M1105 1826 c10 -14 19 -26 22 -26 7 0 -17 39 -28 46 -6 3 -3 -5 6
-20z"/>
<path d="M5106 1793 c-6 -14 -5 -15 5 -6 7 7 10 15 7 18 -3 3 -9 -2 -12 -12z"/>
<path d="M921 1763 c0 -26 1 -27 9 -6 l9 21 93 -24 c102 -26 133 -29 123 -14
-4 6 -10 8 -13 6 -4 -2 -52 6 -107 20 -55 13 -103 24 -107 24 -5 0 -8 -12 -7
-27z"/>
<path d="M4854 1758 c-11 -13 -26 -32 -33 -43 -8 -11 2 -2 22 20 19 22 38 37
42 34 3 -4 13 -52 22 -108 8 -55 19 -101 22 -101 8 0 -24 194 -34 211 -9 14
-20 11 -41 -13z"/>
<path d="M4436 1716 c-48 -57 -54 -70 -34 -82 6 -4 8 -3 5 3 -4 6 1 21 11 32
l17 22 68 -56 c40 -34 64 -61 60 -68 -3 -7 6 -1 20 12 27 25 35 37 17 26 -6
-3 -41 20 -80 51 -66 55 -69 59 -53 76 9 10 22 18 30 18 8 0 11 5 8 10 -11 18
-22 11 -69 -44z"/>
<path d="M1524 1753 c9 -16 -107 -123 -134 -123 -15 0 -4 -18 43 -70 34 -37
42 -41 60 -32 22 10 22 11 1 11 -11 1 -33 15 -50 32 l-29 30 50 45 c28 25 62
51 78 58 l27 12 -26 25 c-15 13 -24 19 -20 12z"/>
<path d="M5437 1739 c4 -13 8 -18 11 -10 2 7 -1 18 -6 23 -8 8 -9 4 -5 -13z"/>
<path d="M745 1716 c-16 -11 -20 -30 -23 -93 -2 -43 -9 -84 -14 -90 -16 -20
-55 -15 -72 9 -22 32 -20 68 7 96 l22 25 -43 -23 c-23 -13 -38 -26 -34 -29 5
-3 15 -23 21 -43 23 -69 90 -99 131 -58 16 16 20 33 20 91 0 78 11 109 40 109
46 0 68 -73 33 -113 -16 -18 -13 -18 26 4 25 14 37 25 28 27 -8 2 -17 16 -21
32 -12 60 -75 90 -121 56z"/>
<path d="M930 1726 c0 -2 8 -10 18 -17 15 -13 16 -12 3 4 -13 16 -21 21 -21
13z"/>
<path d="M960 1686 c0 -2 8 -10 18 -17 15 -13 16 -12 3 4 -13 16 -21 21 -21
13z"/>
<path d="M4781 1652 c0 -8 -9 -21 -19 -30 -10 -10 -12 -13 -5 -8 8 5 16 7 19
4 2 -3 9 -54 14 -113 5 -59 11 -109 13 -111 2 -2 12 3 23 11 14 12 15 14 2 9
-14 -5 -17 4 -22 48 -11 106 -23 203 -25 190z"/>
<path d="M5000 1630 c-6 -11 -8 -20 -6 -20 3 0 10 9 16 20 6 11 8 20 6 20 -3
0 -10 -9 -16 -20z"/>
<path d="M1244 1617 c2 -20 -6 -21 -102 -8 -75 10 -96 11 -105 1 -9 -10 -9
-11 1 -6 7 4 45 3 85 -3 39 -6 89 -13 111 -15 21 -3 46 -11 55 -18 9 -7 7 -3
-6 9 -13 12 -23 26 -23 32 0 5 -4 12 -9 15 -5 3 -8 0 -7 -7z"/>
<path d="M1677 1594 c6 -17 -87 -120 -120 -133 -16 -6 -16 -9 8 -31 23 -22 25
-22 25 -4 0 27 114 139 132 129 7 -5 0 6 -16 23 -34 36 -38 39 -29 16z"/>
<path d="M5081 1578 c-8 -13 -20 -33 -28 -44 -13 -20 -12 -21 9 -17 16 2 54
-17 116 -57 82 -53 92 -63 86 -83 -8 -28 -3 -23 29 29 25 40 25 41 4 37 -14
-2 -56 18 -115 57 -77 50 -92 64 -87 80 8 26 3 25 -14 -2z"/>
<path d="M4704 1568 l-19 -23 23 19 c12 11 22 21 22 23 0 8 -8 2 -26 -19z"/>
<path d="M4275 1555 c-21 -17 -25 -24 -14 -25 17 0 119 -111 119 -129 0 -19
13 -12 64 33 39 36 46 47 38 61 -8 15 -10 14 -16 -9 -3 -14 -18 -34 -33 -43
l-26 -17 -54 59 c-34 38 -52 66 -49 78 5 21 7 22 -29 -8z"/>
<path d="M1055 1550 c10 -11 20 -20 23 -20 3 0 -3 9 -13 20 -10 11 -20 20 -23
20 -3 0 3 -9 13 -20z"/>
<path d="M937 1538 c3 -19 -13 -35 -89 -90 -77 -55 -95 -65 -111 -56 -15 8
-13 2 9 -28 41 -57 41 -57 40 -33 -1 23 42 61 143 129 36 25 47 28 60 17 8 -6
0 9 -18 36 -17 26 -33 47 -35 47 -2 0 -1 -10 1 -22z"/>
<path d="M1320 1536 c0 -2 8 -10 18 -17 15 -13 16 -12 3 4 -13 16 -21 21 -21
13z"/>
<path d="M1095 1500 c10 -11 20 -20 23 -20 3 0 -3 9 -13 20 -10 11 -20 20 -23
20 -3 0 3 -9 13 -20z"/>
<path d="M1761 1496 c-10 -12 -9 -14 6 -10 11 3 26 -3 35 -13 15 -17 12 -23
-43 -90 -55 -68 -58 -73 -39 -83 15 -8 20 -8 20 2 1 7 23 41 50 75 53 66 75
72 86 26 6 -22 8 -23 16 -8 6 9 6 20 2 24 -29 24 -101 78 -110 84 -7 4 -17 0
-23 -7z"/>
<path d="M4652 1495 c-7 -8 -8 -15 -3 -15 6 0 12 -47 14 -117 l3 -118 2 133
c1 72 1 132 0 132 -2 -1 -9 -7 -16 -15z"/>
<path d="M4180 1480 c-19 -15 -21 -20 -8 -20 24 0 98 -114 91 -140 -8 -29 -47
-53 -72 -45 -26 8 -103 114 -97 132 4 9 -1 9 -19 -3 -22 -15 -23 -16 -7 -32
10 -10 33 -39 52 -65 18 -26 44 -50 57 -53 31 -8 84 25 96 60 8 25 4 36 -33
89 -25 36 -40 68 -37 79 3 10 4 18 4 18 -1 0 -13 -9 -27 -20z"/>
<path d="M4889 1483 c-13 -16 -12 -17 4 -4 9 7 17 15 17 17 0 8 -8 3 -21 -13z"/>
<path d="M1371 1471 c-1 -12 -21 -13 -115 -8 l-114 7 6 -23 c5 -19 7 -20 10
-4 3 15 10 18 35 13 45 -8 176 -10 183 -3 3 3 4 12 1 19 -4 10 -6 10 -6 -1z"/>
<path d="M4860 1445 c-7 -9 -11 -17 -9 -20 3 -2 10 5 17 15 14 24 10 26 -8 5z"/>
<path d="M4569 1423 l-24 -28 28 24 c25 23 32 31 24 31 -2 0 -14 -12 -28 -27z"/>
<path d="M4973 1427 c-16 -19 -17 -20 -1 -14 12 4 41 -12 90 -51 l73 -57 -129
-3 c-132 -3 -148 -7 -168 -46 -9 -17 -8 -19 3 -8 24 22 50 12 130 -50 64 -51
79 -67 76 -85 -5 -27 5 -22 33 16 20 29 20 29 0 24 -14 -4 -41 12 -92 53 l-73
59 143 5 142 5 -76 60 c-43 33 -90 72 -105 86 l-28 26 -18 -20z"/>
<path d="M1420 1426 c0 -2 7 -7 16 -10 8 -3 12 -2 9 4 -6 10 -25 14 -25 6z"/>
<path d="M1020 1399 l-25 -20 26 6 c21 5 31 1 47 -20 l21 -27 -90 -74 c-50
-41 -94 -74 -98 -74 -4 0 -13 6 -21 13 -7 6 1 -7 19 -30 34 -45 44 -53 35 -29
-3 9 28 41 88 90 l93 76 18 -22 c12 -16 16 -33 12 -53 l-5 -30 21 22 22 22
-59 72 c-32 40 -63 79 -69 86 -8 10 -15 8 -35 -8z"/>
<path d="M1195 1380 c21 -22 41 -40 44 -40 3 0 -13 18 -34 40 -21 22 -41 40
-44 40 -3 0 13 -18 34 -40z"/>
<path d="M4534 1375 c-4 -8 -12 -15 -19 -15 -7 0 -19 -7 -26 -17 -13 -15 -12
-15 8 -2 12 7 25 11 28 7 3 -3 2 -49 -2 -102 -9 -94 -4 -116 22 -116 5 0 4 4
-4 9 -12 7 -12 30 -5 130 5 67 8 121 6 121 -1 0 -5 -7 -8 -15z"/>
<path d="M1960 1367 c-1 -21 -87 -152 -99 -149 -23 5 -9 -8 49 -43 49 -30 63
-34 80 -25 27 15 25 22 -4 14 -23 -5 -86 19 -86 34 0 13 39 72 48 72 16 0 52
-41 46 -53 -3 -7 2 -3 10 7 20 24 21 37 3 30 -8 -3 -24 4 -37 14 -24 19 -24
21 16 80 2 2 16 -4 33 -14 29 -17 35 -27 32 -47 -1 -5 3 -6 9 -2 5 3 10 12 10
18 0 16 -110 80 -110 64z"/>
<path d="M4754 1328 l-19 -23 23 19 c21 18 27 26 19 26 -2 0 -12 -10 -23 -22z"/>
<path d="M3950 1325 c-14 -8 -19 -14 -12 -15 16 0 15 -23 -4 -68 l-15 -37 -19
35 c-13 26 -15 38 -7 48 7 9 -4 7 -28 -5 -22 -11 -32 -19 -22 -21 16 -3 87
-129 87 -156 0 -13 4 -14 26 -4 15 7 21 14 15 16 -6 2 -20 21 -31 42 l-19 38
47 -14 c26 -8 52 -20 57 -28 9 -12 16 -11 45 5 27 14 30 18 14 19 -11 0 -48 9
-82 21 -69 23 -68 20 -36 98 8 19 13 35 12 37 -2 1 -14 -4 -28 -11z"/>
<path d="M1335 1319 c-43 -5 -24 -6 66 -4 69 1 134 -2 145 -7 18 -9 18 -9 0 6
-21 17 -99 19 -211 5z"/>
<path d="M4439 1303 l-24 -28 28 24 c15 14 27 26 27 28 0 8 -8 1 -31 -24z"/>
<path d="M2138 1277 c10 -12 5 -29 -23 -88 -19 -41 -43 -76 -52 -80 -13 -4
-10 -8 14 -16 30 -11 31 -10 37 20 11 56 18 60 64 41 23 -9 42 -20 42 -26 0
-20 -31 -67 -46 -70 -11 -2 -5 -8 18 -20 34 -16 35 -16 31 0 -5 21 53 149 73
160 11 6 5 13 -23 26 -28 13 -34 14 -24 3 9 -12 8 -22 -5 -50 l-17 -35 -43 20
-42 21 16 33 c8 18 22 34 30 36 8 2 -2 11 -23 21 -29 14 -35 15 -27 4z"/>
<path d="M4690 1270 c-9 -6 -10 -10 -3 -10 6 0 15 5 18 10 8 12 4 12 -15 0z"/>
<path d="M1620 1256 c0 -2 8 -10 18 -17 15 -13 16 -12 3 4 -13 16 -21 21 -21
13z"/>
<path d="M4376 1147 c-10 -59 -15 -115 -12 -123 6 -16 32 -19 40 -5 4 5 -3 7
-14 4 -24 -6 -24 -4 -4 111 8 48 14 96 12 105 -2 9 -12 -33 -22 -92z"/>
<path d="M4639 1223 c-13 -16 -12 -17 4 -4 16 13 21 21 13 21 -2 0 -10 -8 -17
-17z"/>
<path d="M1354 1221 c7 -11 46 -35 46 -28 0 3 -12 12 -26 22 -15 9 -23 12 -20
6z"/>
<path d="M1620 1209 c-19 -4 -75 -10 -125 -14 -49 -4 -84 -10 -77 -12 6 -3 12
-10 12 -17 0 -13 34 -48 60 -61 8 -4 0 5 -17 20 -47 38 -42 52 20 59 154 17
185 18 207 6 12 -7 20 -7 16 -2 -11 18 -60 29 -96 21z"/>
<path d="M4720 1155 c-39 -39 -58 -65 -49 -65 9 0 51 -36 93 -80 63 -66 76
-85 70 -103 -4 -14 20 4 69 52 75 74 76 74 61 103 -19 36 -22 35 -16 -3 4 -24
-2 -37 -29 -65 -18 -19 -38 -34 -44 -34 -6 0 -28 17 -48 38 l-37 38 29 28 c20
19 37 27 50 23 29 -7 26 4 -8 37 -28 27 -28 27 -24 4 3 -16 -5 -32 -27 -53
l-32 -30 -34 40 -34 40 40 38 c35 33 43 36 62 26 23 -12 23 -12 4 10 -11 11
-22 21 -25 21 -4 0 -36 -29 -71 -65z"/>
<path d="M3680 1116 c0 -53 -4 -106 -10 -116 -9 -17 -7 -17 21 -7 20 8 25 13
15 15 -10 2 -16 14 -16 32 0 24 6 30 37 41 34 11 38 10 59 -15 14 -16 29 -24
38 -20 9 3 15 9 15 13 -1 3 -37 39 -80 80 l-79 75 0 -98z m48 -23 c-35 -19
-38 -16 -38 29 l0 42 30 -29 30 -29 -22 -13z"/>
<path d="M1734 1171 c7 -11 46 -35 46 -28 0 3 -12 12 -26 22 -15 9 -23 12 -20
6z"/>
<path d="M2367 1157 c6 -31 -33 -164 -50 -170 -6 -2 -1 -6 13 -8 23 -5 25 -2
26 35 1 23 8 57 16 76 l14 34 39 -91 c21 -51 42 -90 45 -88 4 2 17 43 30 90
16 61 27 85 39 86 12 0 11 3 -4 9 -27 12 -37 12 -30 0 8 -13 -26 -133 -35
-123 -4 4 -22 42 -40 83 -30 68 -44 89 -61 90 -3 0 -4 -11 -2 -23z"/>
<path d="M4569 1153 c-13 -16 -12 -17 4 -4 9 7 17 15 17 17 0 8 -8 3 -21 -13z"/>
<path d="M1162 1103 c-63 -31 -125 -55 -138 -55 -13 0 -24 -1 -24 -2 0 -1 13
-12 30 -24 20 -15 28 -17 24 -7 -4 10 6 20 30 32 l36 17 35 -34 c38 -37 41
-46 23 -85 -8 -17 -17 -24 -27 -20 -9 4 0 -10 19 -30 l35 -36 7 43 c4 24 23
90 42 147 20 58 36 106 36 108 0 7 -21 -2 -128 -54z m61 -41 c-9 -29 -20 -52
-23 -52 -13 0 -65 63 -55 67 6 2 28 12 50 22 22 10 41 17 42 17 1 -1 -5 -25
-14 -54z"/>
<path d="M3485 1134 c-38 -12 -63 -22 -54 -23 12 -1 23 -26 39 -88 13 -49 24
-89 25 -91 1 -1 13 2 26 7 13 5 19 10 12 10 -10 1 -33 58 -33 82 0 11 48 17
58 7 6 -6 8 0 5 16 -5 22 -7 23 -20 11 -25 -26 -52 -18 -61 18 -5 17 -8 35 -6
38 7 13 67 19 80 8 15 -12 19 -1 6 17 -5 7 -28 4 -77 -12z"/>
<path d="M2811 1127 c14 -32 44 -35 59 -7 10 19 10 20 -9 8 -17 -10 -23 -9
-41 7 l-22 20 13 -28z"/>
<path d="M4245 1138 c-2 -7 -16 -60 -30 -118 -19 -75 -34 -114 -53 -135 l-27
-30 32 30 c27 25 36 48 61 148 17 64 28 117 26 117 -3 0 -7 -6 -9 -12z"/>
<path d="M1794 1110 c-5 -4 -54 -16 -109 -26 -55 -9 -95 -19 -88 -21 6 -2 61
5 121 17 60 11 117 18 126 14 9 -3 16 -4 16 -1 0 10 -58 25 -66 17z"/>
<path d="M2624 1102 c6 -10 -22 -152 -34 -174 -8 -15 -6 -18 13 -18 19 0 23 6
25 32 2 18 9 61 17 96 18 78 19 72 -6 72 -11 0 -18 -3 -15 -8z"/>
<path d="M4489 1093 c-13 -16 -12 -17 4 -4 16 13 21 21 13 21 -2 0 -10 -8 -17
-17z"/>
<path d="M3249 1095 c-3 -2 1 -44 8 -92 10 -68 10 -90 0 -102 -10 -12 -9 -14
6 -8 10 4 28 7 39 7 17 0 18 2 5 15 -16 16 -34 156 -23 174 7 11 -25 16 -35 6z"/>
<path d="M1534 1076 c11 -9 24 -16 30 -16 12 0 7 5 -24 19 -24 11 -24 11 -6
-3z"/>
<path d="M2803 1083 c-35 -7 -73 -59 -73 -99 0 -68 34 -104 95 -102 36 1 37 2
8 5 -48 6 -76 47 -70 102 9 80 77 111 124 57 l23 -27 0 28 c0 22 -5 28 -22 28
-13 1 -32 3 -43 7 -11 3 -30 3 -42 1z"/>
<path d="M1890 1076 c0 -3 9 -10 20 -16 11 -6 20 -8 20 -6 0 3 -9 10 -20 16
-11 6 -20 8 -20 6z"/>
<path d="M3090 1070 c12 -8 7 -17 -28 -52 l-44 -43 4 48 c3 42 1 47 -17 47
-20 0 -21 -3 -12 -82 7 -58 6 -87 -2 -100 -10 -16 -7 -18 26 -18 25 0 33 3 25
9 -8 4 -16 28 -19 52 l-6 44 44 -37 c24 -20 43 -41 42 -47 -2 -6 12 -11 33
-11 l35 0 -62 52 -62 51 51 49 51 48 -37 0 c-27 0 -33 -3 -22 -10z"/>
<path d="M4434 1048 l-19 -23 23 19 c21 18 27 26 19 26 -2 0 -12 -10 -23 -22z"/>
<path d="M1948 1038 c17 -21 6 -27 -110 -58 -65 -17 -88 -27 -88 -39 0 -12 2
-13 8 -3 5 6 62 27 128 46 65 19 113 35 105 35 -8 1 -24 9 -35 19 -18 15 -19
15 -8 0z"/>
<path d="M4522 995 c-39 -31 -72 -59 -72 -63 0 -4 8 -16 16 -27 16 -20 16 -20
10 2 -7 22 10 44 66 84 l26 19 7 -150 c4 -82 10 -150 13 -150 3 0 39 26 80 58
41 31 79 60 85 63 6 4 4 15 -5 28 -15 22 -15 22 -21 -6 -6 -28 -98 -108 -111
-96 -3 4 -6 61 -7 127 -1 67 -4 131 -8 144 -6 22 -8 21 -79 -33z"/>
<path d="M4048 930 c-30 -90 -33 -110 -21 -114 23 -9 30 -7 13 4 -13 8 -10 23
19 109 19 55 33 103 30 105 -3 3 -21 -44 -41 -104z"/>
<path d="M1425 998 c-42 -24 -46 -61 -15 -134 29 -67 24 -98 -16 -102 -42 -4
-78 38 -70 83 l6 30 -24 -29 -23 -28 43 -40 c97 -89 180 -23 124 101 -24 52
-25 84 -5 101 12 10 21 10 40 2 33 -15 48 -53 35 -89 -10 -26 -9 -26 19 7 28
33 28 35 10 42 -10 4 -19 12 -19 17 0 27 -76 55 -105 39z"/>
<path d="M4329 983 l-24 -28 28 24 c15 14 27 26 27 28 0 8 -8 1 -31 -24z"/>
<path d="M1640 995 c0 -7 81 -47 86 -43 2 3 -17 14 -41 26 -25 12 -45 20 -45
17z"/>
<path d="M3910 934 c-6 -15 -24 -58 -40 -95 -17 -37 -30 -71 -30 -75 0 -4 -8
-16 -17 -27 -18 -19 -17 -19 5 -6 12 8 22 19 22 26 0 7 18 53 40 104 23 50 38
94 36 97 -3 2 -10 -8 -16 -24z"/>
<path d="M2025 900 c-55 -22 -111 -40 -125 -40 l-25 -2 25 -7 c14 -4 30 -4 35
0 18 13 199 77 230 82 28 4 28 4 -5 4 -19 1 -80 -16 -135 -37z"/>
<path d="M3785 920 c-3 -6 1 -7 9 -4 18 7 21 14 7 14 -6 0 -13 -4 -16 -10z"/>
<path d="M2879 903 c-13 -16 -12 -17 4 -4 16 13 21 21 13 21 -2 0 -10 -8 -17
-17z"/>
<path d="M2260 900 c8 -5 20 -10 25 -10 6 0 3 5 -5 10 -8 5 -19 10 -25 10 -5
0 -3 -5 5 -10z"/>
<path d="M3755 900 c-3 -5 -11 -8 -18 -6 -7 1 -9 1 -4 -1 13 -8 7 -25 -46
-122 l-53 -96 31 -1 c16 -1 22 1 13 3 -10 2 -18 9 -18 14 0 5 25 56 55 114 30
58 53 105 51 105 -3 0 -7 -4 -11 -10z"/>
<path d="M2285 867 c-39 -26 -187 -87 -213 -88 l-27 -2 25 -4 c14 -3 34 -12
45 -21 16 -14 17 -14 8 -1 -10 12 -10 18 -1 27 7 7 15 12 19 12 3 0 42 17 85
37 44 21 93 40 109 44 l30 6 -30 2 c-17 0 -39 -5 -50 -12z"/>
<path d="M2378 863 c7 -3 16 -2 19 1 4 3 -2 6 -13 5 -11 0 -14 -3 -6 -6z"/>
<path d="M4096 845 c-11 -8 -16 -15 -10 -15 5 0 18 7 28 15 11 8 16 15 10 15
-5 0 -18 -7 -28 -15z"/>
<path d="M3498 833 c6 -2 18 -2 25 0 6 3 1 5 -13 5 -14 0 -19 -2 -12 -5z"/>
<path d="M2465 820 c-3 -5 -44 -31 -90 -57 -79 -43 -98 -63 -76 -77 5 -3 8 1
7 10 -1 10 30 34 87 66 48 27 87 53 87 59 0 12 -7 12 -15 -1z"/>
<path d="M2508 823 c12 -2 30 -2 40 0 9 3 -1 5 -23 4 -22 0 -30 -2 -17 -4z"/>
<path d="M3517 745 c-32 -47 -57 -90 -57 -97 0 -7 11 6 24 29 13 23 37 61 53
85 37 54 45 68 40 68 -2 0 -29 -38 -60 -85z"/>
<path d="M2588 813 c7 -3 16 -2 19 1 4 3 -2 6 -13 5 -11 0 -14 -3 -6 -6z"/>
<path d="M2638 803 c24 -9 11 -23 -77 -82 -60 -41 -100 -61 -127 -64 l-39 -4
40 -2 c22 -1 49 -8 59 -16 11 -8 29 -15 40 -14 14 0 10 4 -12 10 -19 6 -32 15
-29 22 2 6 43 38 91 71 70 47 84 61 75 72 -6 8 -17 14 -23 13 -7 0 -6 -2 2 -6z"/>
<path d="M3343 803 c9 -2 23 -2 30 0 6 3 -1 5 -18 5 -16 0 -22 -2 -12 -5z"/>
<path d="M3336 717 c-38 -50 -77 -98 -85 -105 -14 -12 -14 -13 -1 -11 8 1 23
-1 32 -5 10 -5 23 -6 30 -3 7 3 3 6 -9 6 -38 2 -34 17 21 89 58 75 91 122 85
122 -2 0 -35 -42 -73 -93z"/>
<path d="M2698 793 c12 -2 30 -2 40 0 9 3 -1 5 -23 4 -22 0 -30 -2 -17 -4z"/>
<path d="M3273 793 c9 -2 23 -2 30 0 6 3 -1 5 -18 5 -16 0 -22 -2 -12 -5z"/>
<path d="M4201 782 l-33 -17 7 -112 c4 -62 4 -113 1 -113 -4 0 -45 31 -93 69
-77 62 -88 68 -110 58 -23 -10 -23 -11 -4 -31 20 -22 101 -186 101 -205 0 -6
-5 -11 -12 -11 -6 0 -9 -3 -6 -6 4 -3 19 1 35 10 15 8 22 15 16 16 -11 0 -103
167 -103 185 0 3 41 -28 92 -70 51 -41 95 -75 98 -75 3 0 5 55 3 123 l-3 122
46 -92 c40 -79 45 -95 33 -109 -9 -11 1 -9 35 8 35 16 43 24 29 26 -13 2 -34
33 -68 103 -43 85 -48 102 -37 119 7 11 11 20 10 19 -2 0 -18 -8 -37 -17z"/>
<path d="M2788 783 c6 -2 18 -2 25 0 6 3 1 5 -13 5 -14 0 -19 -2 -12 -5z"/>
<path d="M3153 783 c9 -2 23 -2 30 0 6 3 -1 5 -18 5 -16 0 -22 -2 -12 -5z"/>
<path d="M3225 780 c-3 -6 1 -7 9 -4 18 7 21 14 7 14 -6 0 -13 -4 -16 -10z"/>
<path d="M2958 773 c12 -2 30 -2 40 0 9 3 -1 5 -23 4 -22 0 -30 -2 -17 -4z"/>
<path d="M3058 773 c7 -3 16 -2 19 1 4 3 -2 6 -13 5 -11 0 -14 -3 -6 -6z"/>
<path d="M3201 770 c-1 -8 -36 -53 -79 -100 -42 -46 -72 -81 -65 -77 6 4 14 3
18 -3 3 -5 12 -10 18 -10 7 0 6 4 -3 10 -18 11 -16 15 63 104 33 36 57 71 54
78 -4 9 -6 9 -6 -2z"/>
<path d="M2768 707 c-73 -59 -124 -105 -88 -81 31 21 170 135 170 140 0 7 -1
6 -82 -59z"/>
<path d="M2952 689 c-77 -75 -96 -109 -60 -109 9 0 8 3 -2 10 -12 8 1 26 70
95 46 47 82 85 80 85 -3 0 -42 -37 -88 -81z"/>
<path d="M1790 740 c-28 -28 -25 -51 14 -126 36 -67 37 -87 5 -105 -43 -23
-100 38 -86 91 8 31 -1 24 -23 -20 -11 -22 -17 -39 -13 -38 5 2 24 -9 44 -25
42 -32 98 -36 121 -9 30 35 29 53 -7 117 -19 35 -35 72 -35 84 0 26 28 41 56
31 26 -10 35 -23 44 -64 l6 -31 17 33 c11 20 13 32 6 32 -6 0 -24 11 -41 25
-36 30 -81 32 -108 5z"/>
<path d="M3770 710 c-8 -5 -10 -10 -5 -10 6 0 17 5 25 10 8 5 11 10 5 10 -5 0
-17 -5 -25 -10z"/>
<path d="M2243 703 c9 -2 23 -2 30 0 6 3 -1 5 -18 5 -16 0 -22 -2 -12 -5z"/>
<path d="M2011 653 c-10 -23 -10 -26 0 -15 15 14 58 16 78 3 12 -8 7 -27 -29
-113 -44 -107 -53 -119 -79 -112 -9 3 8 -7 38 -21 60 -28 74 -32 46 -11 -20
14 -16 27 54 189 l21 48 30 -16 c29 -15 34 -25 31 -52 -3 -23 7 -14 17 16 l10
29 -96 41 c-53 23 -100 41 -103 41 -3 0 -11 -12 -18 -27z"/>
<path d="M2358 663 c7 -3 16 -2 19 1 4 3 -2 6 -13 5 -11 0 -14 -3 -6 -6z"/>
<path d="M3863 638 l-32 -11 19 -26 c11 -14 29 -61 42 -103 l22 -78 -21 -27
c-11 -15 -34 -32 -52 -37 -28 -8 -36 -6 -55 15 -13 13 -36 61 -51 107 -23 70
-25 85 -13 99 11 15 11 16 -5 10 -11 -4 -30 -10 -43 -13 -22 -6 -23 -8 -11
-23 8 -9 27 -53 41 -98 40 -120 76 -143 163 -104 64 29 69 65 29 191 -22 68
-23 77 -9 93 9 9 14 17 12 16 -2 -1 -18 -6 -36 -11z"/>
<path d="M3518 633 c7 -3 16 -2 19 1 4 3 -2 6 -13 5 -11 0 -14 -3 -6 -6z"/>
<path d="M2598 613 c12 -2 32 -2 45 0 12 2 2 4 -23 4 -25 0 -35 -2 -22 -4z"/>
<path d="M3348 603 c7 -3 16 -2 19 1 4 3 -2 6 -13 5 -11 0 -14 -3 -6 -6z"/>
<path d="M2723 593 c9 -2 25 -2 35 0 9 3 1 5 -18 5 -19 0 -27 -2 -17 -5z"/>
<path d="M2838 593 c7 -3 16 -2 19 1 4 3 -2 6 -13 5 -11 0 -14 -3 -6 -6z"/>
<path d="M3208 593 c7 -3 16 -2 19 1 4 3 -2 6 -13 5 -11 0 -14 -3 -6 -6z"/>
<path d="M2263 578 c17 -13 17 -17 -3 -106 -18 -82 -19 -96 -6 -126 15 -35 54
-56 107 -56 61 0 78 23 105 141 9 41 21 80 27 87 12 15 10 17 -28 26 -26 6
-28 6 -13 -6 16 -12 16 -17 -1 -93 -10 -44 -23 -91 -30 -103 -23 -44 -92 -49
-127 -10 -16 17 -17 26 -6 86 20 116 30 142 55 143 21 0 21 1 2 8 -11 5 -38
11 -60 15 -35 7 -38 6 -22 -6z"/>
<path d="M3008 583 c6 -2 18 -2 25 0 6 3 1 5 -13 5 -14 0 -19 -2 -12 -5z"/>
<path d="M3143 583 c9 -2 23 -2 30 0 6 3 -1 5 -18 5 -16 0 -22 -2 -12 -5z"/>
<path d="M3421 514 c-74 -15 -93 -22 -69 -23 10 -1 21 -9 26 -18 16 -31 53
-205 47 -220 -4 -12 0 -14 17 -9 13 3 32 6 43 6 18 1 18 2 3 11 -28 16 -51
119 -27 119 6 0 38 -23 70 -51 54 -47 60 -50 96 -43 l38 7 -30 9 c-16 4 -51
26 -77 48 l-47 40 25 25 c28 29 31 55 7 83 -25 29 -49 32 -122 16z m69 -14
c30 -16 34 -59 9 -86 -33 -36 -56 -31 -68 14 -6 20 -11 45 -11 54 0 26 37 36
70 18z"/>
<path d="M2574 507 c18 -13 18 -20 7 -123 -8 -74 -17 -113 -27 -121 -13 -9
-10 -12 15 -18 17 -3 59 -7 94 -7 97 -2 147 43 147 132 0 83 -44 123 -150 135
-30 3 -66 8 -80 11 -24 5 -24 5 -6 -9z m162 -48 c70 -65 21 -209 -72 -209 -62
0 -61 0 -47 113 7 56 12 108 13 116 0 21 77 7 106 -20z"/>
<path d="M3143 489 c-49 -14 -87 -70 -87 -127 1 -90 51 -142 135 -142 141 0
175 211 43 266 -38 16 -46 16 -91 3z m104 -48 c34 -50 33 -152 -2 -186 -26
-27 -63 -32 -97 -14 -44 24 -64 140 -33 199 17 34 29 40 75 37 27 -2 39 -9 57
-36z"/>
<path d="M2903 469 c14 -8 17 -25 17 -107 0 -112 -6 -139 -29 -145 -9 -3 8 -5
38 -6 48 -1 52 1 37 12 -16 12 -17 24 -11 126 7 102 10 113 29 121 15 6 4 9
-39 9 -45 0 -56 -2 -42 -10z"/>
</g>
</svg>
